<svg xmlns="http://www.w3.org/2000/svg" xmlns:xlink="http://www.w3.org/1999/xlink" contentStyleType="text/css" height="798px" preserveAspectRatio="none" style="width:1216px;height:798px;background:#FFFFFF;" version="1.1" viewBox="0 0 1216 798" width="1216px" zoomAndPan="magnify"><defs/><g><!--class Vehiculo--><g id="elem_Vehiculo"><rect codeLine="1" fill="#F1F1F1" height="215.5898" id="Vehiculo" rx="2.5" ry="2.5" style="stroke:#181818;stroke-width:0.5;" width="343.502" x="560" y="355"/><ellipse cx="700.6494" cy="371" fill="#A9DCDF" rx="11" ry="11" style="stroke:#181818;stroke-width:1.0;"/><path d="M702.8369,372.7656 L698.6963,372.7656 L698.2744,373.7969 L698.6963,373.7969 Q699.3057,373.7969 699.5713,374.0313 Q699.8369,374.2656 699.8369,374.6563 Q699.8369,375.0313 699.5713,375.2656 Q699.3057,375.5 698.6963,375.5 L696.3994,375.5 Q695.79,375.5 695.54,375.2656 Q695.2744,375.0313 695.2744,374.6406 Q695.2744,374.2656 695.5557,374.0313 Q695.8213,373.7813 696.4463,373.7969 L699.1182,367.1406 L698.0088,367.1406 Q697.3994,367.1406 697.1338,366.9063 Q696.8682,366.6719 696.8682,366.2813 Q696.8682,365.9063 697.1338,365.6719 Q697.3994,365.4375 698.0088,365.4375 L701.6807,365.4375 L705.0713,373.7969 Q705.665,373.7969 705.8525,373.9375 Q706.2432,374.2031 706.2432,374.6563 Q706.2432,375.0313 705.9775,375.2656 Q705.7275,375.5 705.1182,375.5 L702.8213,375.5 Q702.2119,375.5 701.9463,375.2656 Q701.6807,375.0313 701.6807,374.6406 Q701.6807,374.2656 701.9463,374.0313 Q702.2119,373.7969 702.8213,373.7969 L703.2432,373.7969 L702.8369,372.7656 Z M702.1182,371.0625 L700.7588,367.6875 L699.3838,371.0625 L702.1182,371.0625 Z " fill="#000000"/><text fill="#000000" font-family="sans-serif" font-size="14" font-style="italic" lengthAdjust="spacing" textLength="53.7031" x="721.1494" y="376.7969">Vehiculo</text><line style="stroke:#181818;stroke-width:0.5;" x1="561" x2="902.502" y1="387" y2="387"/><rect fill="none" height="6" style="stroke:#C82930;stroke-width:1.0;" width="6" x="568" y="398.8105"/><text fill="#000000" font-family="sans-serif" font-size="14" lengthAdjust="spacing" textLength="105.0342" x="580" y="406.1074">matricula : String</text><rect fill="none" height="6" style="stroke:#C82930;stroke-width:1.0;" width="6" x="568" y="417.4316"/><text fill="#000000" font-family="sans-serif" font-size="14" lengthAdjust="spacing" textLength="87.1377" x="580" y="424.7285">marca : String</text><rect fill="none" height="6" style="stroke:#C82930;stroke-width:1.0;" width="6" x="568" y="436.0527"/><text fill="#000000" font-family="sans-serif" font-size="14" lengthAdjust="spacing" textLength="94.1582" x="580" y="443.3496">modelo : String</text><rect fill="none" height="6" style="stroke:#C82930;stroke-width:1.0;" width="6" x="568" y="454.6738"/><text fill="#000000" font-family="sans-serif" font-size="14" lengthAdjust="spacing" textLength="129.1787" x="580" y="461.9707">anyoFabricacion : int</text><rect fill="none" height="6" style="stroke:#C82930;stroke-width:1.0;" width="6" x="568" y="473.2949"/><text fill="#000000" font-family="sans-serif" font-size="14" lengthAdjust="spacing" textLength="94.1445" x="580" y="480.5918">kilometraje : int</text><rect fill="none" height="6" style="stroke:#C82930;stroke-width:1.0;" width="6" x="568" y="491.916"/><text fill="#000000" font-family="sans-serif" font-size="14" lengthAdjust="spacing" textLength="91.8408" x="580" y="499.2129">precio : double</text><rect fill="none" height="6" style="stroke:#C82930;stroke-width:1.0;" width="6" x="568" y="510.5371"/><text fill="#000000" font-family="sans-serif" font-size="14" lengthAdjust="spacing" textLength="97.2891" x="580" y="517.834">estado : Estado</text><rect fill="none" height="6" style="stroke:#C82930;stroke-width:1.0;" width="6" x="568" y="529.1582"/><text fill="#000000" font-family="sans-serif" font-size="14" lengthAdjust="spacing" textLength="129.9648" x="580" y="536.4551">propietario : Persona</text><line style="stroke:#181818;stroke-width:0.5;" x1="561" x2="902.502" y1="543.9688" y2="543.9688"/><ellipse cx="571" cy="558.7793" fill="#84BE84" rx="3" ry="3" style="stroke:#038048;stroke-width:1.0;"/><text fill="#000000" font-family="sans-serif" font-size="14" lengthAdjust="spacing" textLength="317.502" x="580" y="563.0762">calcularRiesgo(experienciaConductor : int) : double</text></g><!--class Estado--><g id="elem_Estado"><rect codeLine="12" fill="#F1F1F1" height="85.2422" id="Estado" rx="2.5" ry="2.5" style="stroke:#181818;stroke-width:0.5;" width="96.0273" x="491" y="678"/><ellipse cx="515.1986" cy="694" fill="#EB937F" rx="11" ry="11" style="stroke:#181818;stroke-width:1.0;"/><path d="M514.058,694.7969 L514.058,697.2969 L518.3861,697.2969 L518.3861,696.375 Q518.3861,695.7656 518.6205,695.5 Q518.8705,695.2344 519.2455,695.2344 Q519.6205,695.2344 519.8549,695.5 Q520.0893,695.7656 520.0893,696.375 L520.0893,699 L512.0893,699 Q511.4643,699 511.1986,698.7656 Q510.9486,698.5313 510.9486,698.1406 Q510.9486,697.7656 511.2143,697.5313 Q511.4799,697.2969 512.0893,697.2969 L512.3549,697.2969 L512.3549,690.6406 L512.0893,690.6406 Q511.4643,690.6406 511.1986,690.4063 Q510.9486,690.1719 510.9486,689.7813 Q510.9486,689.4063 511.1986,689.1719 Q511.4643,688.9375 512.0893,688.9375 L519.7143,688.9375 L519.7143,691.5313 Q519.7143,692.1406 519.4799,692.4063 Q519.2611,692.6563 518.8705,692.6563 Q518.4955,692.6563 518.2611,692.4063 Q518.0268,692.1406 518.0268,691.5313 L518.0268,690.6406 L514.058,690.6406 L514.058,693.0938 L515.5424,693.0938 Q515.5424,692.4375 515.6674,692.25 Q515.933,691.8438 516.4018,691.8438 Q516.7768,691.8438 517.0111,692.1094 Q517.2455,692.3594 517.2455,692.9688 L517.2455,694.9375 Q517.2455,695.4844 517.1205,695.6719 Q516.8549,696.0625 516.4018,696.0625 Q515.933,696.0625 515.6674,695.6563 Q515.5424,695.4688 515.5424,694.7969 L514.058,694.7969 Z " fill="#000000"/><text fill="#000000" font-family="sans-serif" font-size="14" lengthAdjust="spacing" textLength="43.5859" x="531.2428" y="699.7969">Estado</text><line style="stroke:#181818;stroke-width:0.5;" x1="492" x2="586.0273" y1="710" y2="710"/><text fill="#000000" font-family="sans-serif" font-size="14" lengthAdjust="spacing" textLength="84.0273" x="497" y="729.1074">DISPONIBLE</text><text fill="#000000" font-family="sans-serif" font-size="14" lengthAdjust="spacing" textLength="63.7861" x="497" y="747.7285">VENDIDO</text><line style="stroke:#181818;stroke-width:0.5;" x1="492" x2="586.0273" y1="755.2422" y2="755.2422"/></g><!--class Valorable--><g id="elem_Valorable"><rect codeLine="1" fill="#F1F1F1" height="66.6211" id="Valorable" rx="2.5" ry="2.5" style="stroke:#181818;stroke-width:0.5;" width="218.9854" x="622.5" y="687"/><ellipse cx="698.167" cy="703" fill="#B4A7E5" rx="11" ry="11" style="stroke:#181818;stroke-width:1.0;"/><path d="M699.1201,699.6406 L699.1201,706.2969 L700.8389,706.2969 Q701.4482,706.2969 701.7139,706.5313 Q701.9795,706.7656 701.9795,707.1563 Q701.9795,707.5313 701.7139,707.7656 Q701.4482,708 700.8389,708 L695.6982,708 Q695.0889,708 694.8232,707.7656 Q694.5576,707.5313 694.5576,707.1406 Q694.5576,706.7656 694.8232,706.5313 Q695.0889,706.2969 695.6982,706.2969 L697.417,706.2969 L697.417,699.6406 L695.6982,699.6406 Q695.0889,699.6406 694.8232,699.4063 Q694.5576,699.1719 694.5576,698.7813 Q694.5576,698.4063 694.8232,698.1719 Q695.0889,697.9375 695.6982,697.9375 L700.8389,697.9375 Q701.4482,697.9375 701.7139,698.1719 Q701.9795,698.4063 701.9795,698.7813 Q701.9795,699.1719 701.7139,699.4063 Q701.4482,699.6406 700.8389,699.6406 L699.1201,699.6406 Z " fill="#000000"/><text fill="#000000" font-family="sans-serif" font-size="14" font-style="italic" lengthAdjust="spacing" textLength="59.1514" x="718.667" y="708.7969">Valorable</text><line style="stroke:#181818;stroke-width:0.5;" x1="623.5" x2="840.4854" y1="719" y2="719"/><line style="stroke:#181818;stroke-width:0.5;" x1="623.5" x2="840.4854" y1="727" y2="727"/><ellipse cx="633.5" cy="741.8105" fill="#84BE84" rx="3" ry="3" style="stroke:#038048;stroke-width:1.0;"/><text fill="#000000" font-family="sans-serif" font-size="14" lengthAdjust="spacing" textLength="192.9854" x="642.5" y="746.1074">calcularDepreciacion() : double</text></g><!--class Persona--><g id="elem_Persona"><rect codeLine="1" fill="#F1F1F1" height="141.1055" id="Persona" rx="2.5" ry="2.5" style="stroke:#181818;stroke-width:0.5;" width="210.4473" x="877" y="650"/><ellipse cx="951.9014" cy="666" fill="#ADD1B2" rx="11" ry="11" style="stroke:#181818;stroke-width:1.0;"/><path d="M954.667,661.875 Q954.8232,661.6563 955.0107,661.5469 Q955.1982,661.4375 955.417,661.4375 Q955.792,661.4375 956.0264,661.7031 Q956.2607,661.9531 956.2607,662.5625 L956.2607,664.0156 Q956.2607,664.625 956.0264,664.8906 Q955.792,665.1563 955.417,665.1563 Q955.0732,665.1563 954.8701,664.9531 Q954.667,664.7656 954.5576,664.25 Q954.5107,663.8906 954.3232,663.7031 Q953.9951,663.3281 953.3857,663.1094 Q952.7764,662.8906 952.1514,662.8906 Q951.3857,662.8906 950.7451,663.2188 Q950.1201,663.5469 949.6201,664.2969 Q949.1357,665.0469 949.1357,666.0781 L949.1357,667.1719 Q949.1357,668.4063 950.0264,669.2344 Q950.917,670.0469 952.5107,670.0469 Q953.4482,670.0469 954.1045,669.7969 Q954.4951,669.6406 954.917,669.2031 Q955.1826,668.9375 955.3232,668.8594 Q955.4795,668.7813 955.6826,668.7813 Q956.0107,668.7813 956.2607,669.0469 Q956.5264,669.2969 956.5264,669.6406 Q956.5264,669.9844 956.1826,670.3906 Q955.6826,670.9688 954.8857,671.2969 Q953.8076,671.75 952.5107,671.75 Q950.9951,671.75 949.792,671.125 Q948.8076,670.625 948.1201,669.5625 Q947.4326,668.4844 947.4326,667.2031 L947.4326,666.0469 Q947.4326,664.7188 948.042,663.5781 Q948.667,662.4219 949.7607,661.8125 Q950.8545,661.1875 952.0889,661.1875 Q952.8232,661.1875 953.4639,661.3594 Q954.1201,661.5156 954.667,661.875 Z " fill="#000000"/><text fill="#000000" font-family="sans-serif" font-size="14" lengthAdjust="spacing" textLength="52.1445" x="972.4014" y="671.7969">Persona</text><line style="stroke:#181818;stroke-width:0.5;" x1="878" x2="1086.4473" y1="682" y2="682"/><rect fill="none" height="6" style="stroke:#C82930;stroke-width:1.0;" width="6" x="885" y="693.8105"/><text fill="#000000" font-family="sans-serif" font-size="14" lengthAdjust="spacing" textLength="95.71" x="897" y="701.1074">nombre : String</text><rect fill="none" height="6" style="stroke:#C82930;stroke-width:1.0;" width="6" x="885" y="712.4316"/><text fill="#000000" font-family="sans-serif" font-size="14" lengthAdjust="spacing" textLength="103.5029" x="897" y="719.7285">apellidos : String</text><rect fill="none" height="6" style="stroke:#C82930;stroke-width:1.0;" width="6" x="885" y="731.0527"/><text fill="#000000" font-family="sans-serif" font-size="14" lengthAdjust="spacing" textLength="66.9238" x="897" y="738.3496">dni : String</text><rect fill="none" height="6" style="stroke:#C82930;stroke-width:1.0;" width="6" x="885" y="749.6738"/><text fill="#000000" font-family="sans-serif" font-size="14" lengthAdjust="spacing" textLength="130.7305" x="897" y="756.9707">fechaNacimiento : int</text><rect fill="none" height="6" style="stroke:#C82930;stroke-width:1.0;" width="6" x="885" y="768.2949"/><text fill="#000000" font-family="sans-serif" font-size="14" lengthAdjust="spacing" textLength="184.4473" x="897" y="775.5918">fechaCaducidadCarnet : Date</text><line style="stroke:#181818;stroke-width:0.5;" x1="878" x2="1086.4473" y1="783.1055" y2="783.1055"/></g><!--class Coche--><g id="elem_Coche"><rect codeLine="1" fill="#F1F1F1" height="122.4844" id="Coche" rx="2.5" ry="2.5" style="stroke:#181818;stroke-width:0.5;" width="243.1025" x="218.5" y="172"/><ellipse cx="315.5669" cy="188" fill="#ADD1B2" rx="11" ry="11" style="stroke:#181818;stroke-width:1.0;"/><path d="M318.3325,183.875 Q318.4888,183.6563 318.6763,183.5469 Q318.8638,183.4375 319.0825,183.4375 Q319.4575,183.4375 319.6919,183.7031 Q319.9263,183.9531 319.9263,184.5625 L319.9263,186.0156 Q319.9263,186.625 319.6919,186.8906 Q319.4575,187.1563 319.0825,187.1563 Q318.7388,187.1563 318.5356,186.9531 Q318.3325,186.7656 318.2231,186.25 Q318.1763,185.8906 317.9888,185.7031 Q317.6606,185.3281 317.0513,185.1094 Q316.4419,184.8906 315.8169,184.8906 Q315.0513,184.8906 314.4106,185.2188 Q313.7856,185.5469 313.2856,186.2969 Q312.8013,187.0469 312.8013,188.0781 L312.8013,189.1719 Q312.8013,190.4063 313.6919,191.2344 Q314.5825,192.0469 316.1763,192.0469 Q317.1138,192.0469 317.77,191.7969 Q318.1606,191.6406 318.5825,191.2031 Q318.8481,190.9375 318.9888,190.8594 Q319.145,190.7813 319.3481,190.7813 Q319.6763,190.7813 319.9263,191.0469 Q320.1919,191.2969 320.1919,191.6406 Q320.1919,191.9844 319.8481,192.3906 Q319.3481,192.9688 318.5513,193.2969 Q317.4731,193.75 316.1763,193.75 Q314.6606,193.75 313.4575,193.125 Q312.4731,192.625 311.7856,191.5625 Q311.0981,190.4844 311.0981,189.2031 L311.0981,188.0469 Q311.0981,186.7188 311.7075,185.5781 Q312.3325,184.4219 313.4263,183.8125 Q314.52,183.1875 315.7544,183.1875 Q316.4888,183.1875 317.1294,183.3594 Q317.7856,183.5156 318.3325,183.875 Z " fill="#000000"/><text fill="#000000" font-family="sans-serif" font-size="14" lengthAdjust="spacing" textLength="40.4688" x="336.0669" y="193.7969">Coche</text><line style="stroke:#181818;stroke-width:0.5;" x1="219.5" x2="460.6025" y1="204" y2="204"/><rect fill="none" height="6" style="stroke:#C82930;stroke-width:1.0;" width="6" x="226.5" y="215.8105"/><text fill="#000000" font-family="sans-serif" font-size="14" lengthAdjust="spacing" textLength="101.9375" x="238.5" y="223.1074">numPuertas : int</text><rect fill="none" height="6" style="stroke:#C82930;stroke-width:1.0;" width="6" x="226.5" y="234.4316"/><text fill="#000000" font-family="sans-serif" font-size="14" lengthAdjust="spacing" textLength="217.1025" x="238.5" y="241.7285">tipoCombustible : TipoCombustible</text><rect fill="none" height="6" style="stroke:#C82930;stroke-width:1.0;" width="6" x="226.5" y="253.0527"/><text fill="#000000" font-family="sans-serif" font-size="14" lengthAdjust="spacing" textLength="144.751" x="238.5" y="260.3496">capacidadMaletero : int</text><rect fill="none" height="6" style="stroke:#C82930;stroke-width:1.0;" width="6" x="226.5" y="271.6738"/><text fill="#000000" font-family="sans-serif" font-size="14" lengthAdjust="spacing" textLength="114.3721" x="238.5" y="278.9707">traccion : Traccion</text><line style="stroke:#181818;stroke-width:0.5;" x1="219.5" x2="460.6025" y1="286.4844" y2="286.4844"/></g><!--class TipoCombustible--><g id="elem_TipoCombustible"><rect codeLine="8" fill="#F1F1F1" height="122.4844" id="TipoCombustible" rx="2.5" ry="2.5" style="stroke:#181818;stroke-width:0.5;" width="137.0479" x="185.5" y="402"/><ellipse cx="200.5" cy="418" fill="#EB937F" rx="11" ry="11" style="stroke:#181818;stroke-width:1.0;"/><path d="M199.3594,418.7969 L199.3594,421.2969 L203.6875,421.2969 L203.6875,420.375 Q203.6875,419.7656 203.9219,419.5 Q204.1719,419.2344 204.5469,419.2344 Q204.9219,419.2344 205.1563,419.5 Q205.3906,419.7656 205.3906,420.375 L205.3906,423 L197.3906,423 Q196.7656,423 196.5,422.7656 Q196.25,422.5313 196.25,422.1406 Q196.25,421.7656 196.5156,421.5313 Q196.7813,421.2969 197.3906,421.2969 L197.6563,421.2969 L197.6563,414.6406 L197.3906,414.6406 Q196.7656,414.6406 196.5,414.4063 Q196.25,414.1719 196.25,413.7813 Q196.25,413.4063 196.5,413.1719 Q196.7656,412.9375 197.3906,412.9375 L205.0156,412.9375 L205.0156,415.5313 Q205.0156,416.1406 204.7813,416.4063 Q204.5625,416.6563 204.1719,416.6563 Q203.7969,416.6563 203.5625,416.4063 Q203.3281,416.1406 203.3281,415.5313 L203.3281,414.6406 L199.3594,414.6406 L199.3594,417.0938 L200.8438,417.0938 Q200.8438,416.4375 200.9688,416.25 Q201.2344,415.8438 201.7031,415.8438 Q202.0781,415.8438 202.3125,416.1094 Q202.5469,416.3594 202.5469,416.9688 L202.5469,418.9375 Q202.5469,419.4844 202.4219,419.6719 Q202.1563,420.0625 201.7031,420.0625 Q201.2344,420.0625 200.9688,419.6563 Q200.8438,419.4688 200.8438,418.7969 L199.3594,418.7969 Z " fill="#000000"/><text fill="#000000" font-family="sans-serif" font-size="14" lengthAdjust="spacing" textLength="105.0479" x="214.5" y="423.7969">TipoCombustible</text><line style="stroke:#181818;stroke-width:0.5;" x1="186.5" x2="321.5479" y1="434" y2="434"/><text fill="#000000" font-family="sans-serif" font-size="14" lengthAdjust="spacing" textLength="71.5791" x="191.5" y="453.1074">GASOLINA</text><text fill="#000000" font-family="sans-serif" font-size="14" lengthAdjust="spacing" textLength="49.7998" x="191.5" y="471.7285">DIESEL</text><text fill="#000000" font-family="sans-serif" font-size="14" lengthAdjust="spacing" textLength="58.3379" x="191.5" y="490.3496">HIBRIDO</text><text fill="#000000" font-family="sans-serif" font-size="14" lengthAdjust="spacing" textLength="80.124" x="191.5" y="508.9707">ELECTRICO</text><line style="stroke:#181818;stroke-width:0.5;" x1="186.5" x2="321.5479" y1="516.4844" y2="516.4844"/></g><!--class Traccion--><g id="elem_Traccion"><rect codeLine="14" fill="#F1F1F1" height="103.8633" id="Traccion" rx="2.5" ry="2.5" style="stroke:#181818;stroke-width:0.5;" width="96.0205" x="358" y="411"/><ellipse cx="377.6521" cy="427" fill="#EB937F" rx="11" ry="11" style="stroke:#181818;stroke-width:1.0;"/><path d="M376.5114,427.7969 L376.5114,430.2969 L380.8396,430.2969 L380.8396,429.375 Q380.8396,428.7656 381.0739,428.5 Q381.3239,428.2344 381.6989,428.2344 Q382.0739,428.2344 382.3083,428.5 Q382.5427,428.7656 382.5427,429.375 L382.5427,432 L374.5427,432 Q373.9177,432 373.6521,431.7656 Q373.4021,431.5313 373.4021,431.1406 Q373.4021,430.7656 373.6677,430.5313 Q373.9333,430.2969 374.5427,430.2969 L374.8083,430.2969 L374.8083,423.6406 L374.5427,423.6406 Q373.9177,423.6406 373.6521,423.4063 Q373.4021,423.1719 373.4021,422.7813 Q373.4021,422.4063 373.6521,422.1719 Q373.9177,421.9375 374.5427,421.9375 L382.1677,421.9375 L382.1677,424.5313 Q382.1677,425.1406 381.9333,425.4063 Q381.7146,425.6563 381.3239,425.6563 Q380.9489,425.6563 380.7146,425.4063 Q380.4802,425.1406 380.4802,424.5313 L380.4802,423.6406 L376.5114,423.6406 L376.5114,426.0938 L377.9958,426.0938 Q377.9958,425.4375 378.1208,425.25 Q378.3864,424.8438 378.8552,424.8438 Q379.2302,424.8438 379.4646,425.1094 Q379.6989,425.3594 379.6989,425.9688 L379.6989,427.9375 Q379.6989,428.4844 379.5739,428.6719 Q379.3083,429.0625 378.8552,429.0625 Q378.3864,429.0625 378.1208,428.6563 Q377.9958,428.4688 377.9958,427.7969 L376.5114,427.7969 Z " fill="#000000"/><text fill="#000000" font-family="sans-serif" font-size="14" lengthAdjust="spacing" textLength="53.6826" x="392.6858" y="432.7969">Traccion</text><line style="stroke:#181818;stroke-width:0.5;" x1="359" x2="453.0205" y1="443" y2="443"/><text fill="#000000" font-family="sans-serif" font-size="14" lengthAdjust="spacing" textLength="84.0205" x="364" y="462.1074">DELANTERA</text><text fill="#000000" font-family="sans-serif" font-size="14" lengthAdjust="spacing" textLength="66.124" x="364" y="480.7285">TRASERA</text><text fill="#000000" font-family="sans-serif" font-size="14" lengthAdjust="spacing" textLength="24.9102" x="364" y="499.3496">4X4</text><line style="stroke:#181818;stroke-width:0.5;" x1="359" x2="453.0205" y1="506.8633" y2="506.8633"/></g><!--class Moto--><g id="elem_Moto"><rect codeLine="1" fill="#F1F1F1" height="122.4844" id="Moto" rx="2.5" ry="2.5" style="stroke:#181818;stroke-width:0.5;" width="239.958" x="882" y="172"/><ellipse cx="982.167" cy="188" fill="#ADD1B2" rx="11" ry="11" style="stroke:#181818;stroke-width:1.0;"/><path d="M984.9326,183.875 Q985.0889,183.6563 985.2764,183.5469 Q985.4639,183.4375 985.6826,183.4375 Q986.0576,183.4375 986.292,183.7031 Q986.5264,183.9531 986.5264,184.5625 L986.5264,186.0156 Q986.5264,186.625 986.292,186.8906 Q986.0576,187.1563 985.6826,187.1563 Q985.3389,187.1563 985.1357,186.9531 Q984.9326,186.7656 984.8232,186.25 Q984.7764,185.8906 984.5889,185.7031 Q984.2607,185.3281 983.6514,185.1094 Q983.042,184.8906 982.417,184.8906 Q981.6514,184.8906 981.0107,185.2188 Q980.3857,185.5469 979.8857,186.2969 Q979.4014,187.0469 979.4014,188.0781 L979.4014,189.1719 Q979.4014,190.4063 980.292,191.2344 Q981.1826,192.0469 982.7764,192.0469 Q983.7139,192.0469 984.3701,191.7969 Q984.7607,191.6406 985.1826,191.2031 Q985.4482,190.9375 985.5889,190.8594 Q985.7451,190.7813 985.9482,190.7813 Q986.2764,190.7813 986.5264,191.0469 Q986.792,191.2969 986.792,191.6406 Q986.792,191.9844 986.4482,192.3906 Q985.9482,192.9688 985.1514,193.2969 Q984.0732,193.75 982.7764,193.75 Q981.2607,193.75 980.0576,193.125 Q979.0732,192.625 978.3857,191.5625 Q977.6982,190.4844 977.6982,189.2031 L977.6982,188.0469 Q977.6982,186.7188 978.3076,185.5781 Q978.9326,184.4219 980.0264,183.8125 Q981.1201,183.1875 982.3545,183.1875 Q983.0889,183.1875 983.7295,183.3594 Q984.3857,183.5156 984.9326,183.875 Z " fill="#000000"/><text fill="#000000" font-family="sans-serif" font-size="14" lengthAdjust="spacing" textLength="31.124" x="1002.667" y="193.7969">Moto</text><line style="stroke:#181818;stroke-width:0.5;" x1="883" x2="1120.958" y1="204" y2="204"/><rect fill="none" height="6" style="stroke:#C82930;stroke-width:1.0;" width="6" x="890" y="215.8105"/><text fill="#000000" font-family="sans-serif" font-size="14" lengthAdjust="spacing" textLength="86.3789" x="902" y="223.1074">cilindrada : int</text><rect fill="none" height="6" style="stroke:#C82930;stroke-width:1.0;" width="6" x="890" y="234.4316"/><text fill="#000000" font-family="sans-serif" font-size="14" lengthAdjust="spacing" textLength="56.8135" x="902" y="241.7285">peso : int</text><rect fill="none" height="6" style="stroke:#C82930;stroke-width:1.0;" width="6" x="890" y="253.0527"/><text fill="#000000" font-family="sans-serif" font-size="14" lengthAdjust="spacing" textLength="135.4268" x="902" y="260.3496">alturaAsiento : double</text><rect fill="none" height="6" style="stroke:#C82930;stroke-width:1.0;" width="6" x="890" y="271.6738"/><text fill="#000000" font-family="sans-serif" font-size="14" lengthAdjust="spacing" textLength="213.958" x="902" y="278.9707">tipoTransmision : TipoTransmision</text><line style="stroke:#181818;stroke-width:0.5;" x1="883" x2="1120.958" y1="286.4844" y2="286.4844"/></g><!--class TipoTransmision--><g id="elem_TipoTransmision"><rect codeLine="8" fill="#F1F1F1" height="85.2422" id="TipoTransmision" rx="2.5" ry="2.5" style="stroke:#181818;stroke-width:0.5;" width="135.4756" x="939.5" y="420.5"/><ellipse cx="954.5" cy="436.5" fill="#EB937F" rx="11" ry="11" style="stroke:#181818;stroke-width:1.0;"/><path d="M953.3594,437.2969 L953.3594,439.7969 L957.6875,439.7969 L957.6875,438.875 Q957.6875,438.2656 957.9219,438 Q958.1719,437.7344 958.5469,437.7344 Q958.9219,437.7344 959.1563,438 Q959.3906,438.2656 959.3906,438.875 L959.3906,441.5 L951.3906,441.5 Q950.7656,441.5 950.5,441.2656 Q950.25,441.0313 950.25,440.6406 Q950.25,440.2656 950.5156,440.0313 Q950.7813,439.7969 951.3906,439.7969 L951.6563,439.7969 L951.6563,433.1406 L951.3906,433.1406 Q950.7656,433.1406 950.5,432.9063 Q950.25,432.6719 950.25,432.2813 Q950.25,431.9063 950.5,431.6719 Q950.7656,431.4375 951.3906,431.4375 L959.0156,431.4375 L959.0156,434.0313 Q959.0156,434.6406 958.7813,434.9063 Q958.5625,435.1563 958.1719,435.1563 Q957.7969,435.1563 957.5625,434.9063 Q957.3281,434.6406 957.3281,434.0313 L957.3281,433.1406 L953.3594,433.1406 L953.3594,435.5938 L954.8438,435.5938 Q954.8438,434.9375 954.9688,434.75 Q955.2344,434.3438 955.7031,434.3438 Q956.0781,434.3438 956.3125,434.6094 Q956.5469,434.8594 956.5469,435.4688 L956.5469,437.4375 Q956.5469,437.9844 956.4219,438.1719 Q956.1563,438.5625 955.7031,438.5625 Q955.2344,438.5625 954.9688,438.1563 Q954.8438,437.9688 954.8438,437.2969 L953.3594,437.2969 Z " fill="#000000"/><text fill="#000000" font-family="sans-serif" font-size="14" lengthAdjust="spacing" textLength="103.4756" x="968.5" y="442.2969">TipoTransmision</text><line style="stroke:#181818;stroke-width:0.5;" x1="940.5" x2="1073.9756" y1="452.5" y2="452.5"/><text fill="#000000" font-family="sans-serif" font-size="14" lengthAdjust="spacing" textLength="58.3447" x="945.5" y="471.6074">MANUAL</text><text fill="#000000" font-family="sans-serif" font-size="14" lengthAdjust="spacing" textLength="91.7793" x="945.5" y="490.2285">AUTOMATICA</text><line style="stroke:#181818;stroke-width:0.5;" x1="940.5" x2="1073.9756" y1="497.7422" y2="497.7422"/></g><!--class Camion--><g id="elem_Camion"><rect codeLine="1" fill="#F1F1F1" height="122.4844" id="Camion" rx="2.5" ry="2.5" style="stroke:#181818;stroke-width:0.5;" width="192.5645" x="644.5" y="172"/><ellipse cx="712.4116" cy="188" fill="#ADD1B2" rx="11" ry="11" style="stroke:#181818;stroke-width:1.0;"/><path d="M715.1772,183.875 Q715.3335,183.6563 715.521,183.5469 Q715.7085,183.4375 715.9272,183.4375 Q716.3022,183.4375 716.5366,183.7031 Q716.771,183.9531 716.771,184.5625 L716.771,186.0156 Q716.771,186.625 716.5366,186.8906 Q716.3022,187.1563 715.9272,187.1563 Q715.5835,187.1563 715.3804,186.9531 Q715.1772,186.7656 715.0679,186.25 Q715.021,185.8906 714.8335,185.7031 Q714.5054,185.3281 713.896,185.1094 Q713.2866,184.8906 712.6616,184.8906 Q711.896,184.8906 711.2554,185.2188 Q710.6304,185.5469 710.1304,186.2969 Q709.646,187.0469 709.646,188.0781 L709.646,189.1719 Q709.646,190.4063 710.5366,191.2344 Q711.4272,192.0469 713.021,192.0469 Q713.9585,192.0469 714.6147,191.7969 Q715.0054,191.6406 715.4272,191.2031 Q715.6929,190.9375 715.8335,190.8594 Q715.9897,190.7813 716.1929,190.7813 Q716.521,190.7813 716.771,191.0469 Q717.0366,191.2969 717.0366,191.6406 Q717.0366,191.9844 716.6929,192.3906 Q716.1929,192.9688 715.396,193.2969 Q714.3179,193.75 713.021,193.75 Q711.5054,193.75 710.3022,193.125 Q709.3179,192.625 708.6304,191.5625 Q707.9429,190.4844 707.9429,189.2031 L707.9429,188.0469 Q707.9429,186.7188 708.5522,185.5781 Q709.1772,184.4219 710.271,183.8125 Q711.3647,183.1875 712.5991,183.1875 Q713.3335,183.1875 713.9741,183.3594 Q714.6304,183.5156 715.1772,183.875 Z " fill="#000000"/><text fill="#000000" font-family="sans-serif" font-size="14" lengthAdjust="spacing" textLength="48.2412" x="732.9116" y="193.7969">Camion</text><line style="stroke:#181818;stroke-width:0.5;" x1="645.5" x2="836.0645" y1="204" y2="204"/><rect fill="none" height="6" style="stroke:#C82930;stroke-width:1.0;" width="6" x="652.5" y="215.8105"/><text fill="#000000" font-family="sans-serif" font-size="14" lengthAdjust="spacing" textLength="155.668" x="664.5" y="223.1074">capacidadCarga : double</text><rect fill="none" height="6" style="stroke:#C82930;stroke-width:1.0;" width="6" x="652.5" y="234.4316"/><text fill="#000000" font-family="sans-serif" font-size="14" lengthAdjust="spacing" textLength="80.9238" x="664.5" y="241.7285">numEjes : int</text><rect fill="none" height="6" style="stroke:#C82930;stroke-width:1.0;" width="6" x="652.5" y="253.0527"/><text fill="#000000" font-family="sans-serif" font-size="14" lengthAdjust="spacing" textLength="166.5645" x="664.5" y="260.3496">longitudRemolque : double</text><rect fill="none" height="6" style="stroke:#C82930;stroke-width:1.0;" width="6" x="652.5" y="271.6738"/><text fill="#000000" font-family="sans-serif" font-size="14" lengthAdjust="spacing" textLength="115.1719" x="664.5" y="278.9707">potenciaMotor : int</text><line style="stroke:#181818;stroke-width:0.5;" x1="645.5" x2="836.0645" y1="286.4844" y2="286.4844"/></g><!--class SUV--><g id="elem_SUV"><rect codeLine="1" fill="#F1F1F1" height="85.2422" id="SUV" rx="2.5" ry="2.5" style="stroke:#181818;stroke-width:0.5;" width="198.0127" x="232" y="16.5"/><ellipse cx="312.3633" cy="32.5" fill="#ADD1B2" rx="11" ry="11" style="stroke:#181818;stroke-width:1.0;"/><path d="M315.1289,28.375 Q315.2852,28.1563 315.4727,28.0469 Q315.6602,27.9375 315.8789,27.9375 Q316.2539,27.9375 316.4883,28.2031 Q316.7227,28.4531 316.7227,29.0625 L316.7227,30.5156 Q316.7227,31.125 316.4883,31.3906 Q316.2539,31.6563 315.8789,31.6563 Q315.5352,31.6563 315.332,31.4531 Q315.1289,31.2656 315.0195,30.75 Q314.9727,30.3906 314.7852,30.2031 Q314.457,29.8281 313.8477,29.6094 Q313.2383,29.3906 312.6133,29.3906 Q311.8477,29.3906 311.207,29.7188 Q310.582,30.0469 310.082,30.7969 Q309.5977,31.5469 309.5977,32.5781 L309.5977,33.6719 Q309.5977,34.9063 310.4883,35.7344 Q311.3789,36.5469 312.9727,36.5469 Q313.9102,36.5469 314.5664,36.2969 Q314.957,36.1406 315.3789,35.7031 Q315.6445,35.4375 315.7852,35.3594 Q315.9414,35.2813 316.1445,35.2813 Q316.4727,35.2813 316.7227,35.5469 Q316.9883,35.7969 316.9883,36.1406 Q316.9883,36.4844 316.6445,36.8906 Q316.1445,37.4688 315.3477,37.7969 Q314.2695,38.25 312.9727,38.25 Q311.457,38.25 310.2539,37.625 Q309.2695,37.125 308.582,36.0625 Q307.8945,34.9844 307.8945,33.7031 L307.8945,32.5469 Q307.8945,31.2188 308.5039,30.0781 Q309.1289,28.9219 310.2227,28.3125 Q311.3164,27.6875 312.5508,27.6875 Q313.2852,27.6875 313.9258,27.8594 Q314.582,28.0156 315.1289,28.375 Z " fill="#000000"/><text fill="#000000" font-family="sans-serif" font-size="14" lengthAdjust="spacing" textLength="28.7861" x="332.8633" y="38.2969">SUV</text><line style="stroke:#181818;stroke-width:0.5;" x1="233" x2="429.0127" y1="48.5" y2="48.5"/><rect fill="none" height="6" style="stroke:#C82930;stroke-width:1.0;" width="6" x="240" y="60.3105"/><text fill="#000000" font-family="sans-serif" font-size="14" lengthAdjust="spacing" textLength="172.0127" x="252" y="67.6074">capacidadOffroad : boolean</text><rect fill="none" height="6" style="stroke:#C82930;stroke-width:1.0;" width="6" x="240" y="78.9316"/><text fill="#000000" font-family="sans-serif" font-size="14" lengthAdjust="spacing" textLength="155.668" x="252" y="86.2285">alturaLibreSuelo : double</text><line style="stroke:#181818;stroke-width:0.5;" x1="233" x2="429.0127" y1="93.7422" y2="93.7422"/></g><!--class Sedan--><g id="elem_Sedan"><rect codeLine="1" fill="#F1F1F1" height="85.2422" id="Sedan" rx="2.5" ry="2.5" style="stroke:#181818;stroke-width:0.5;" width="189.3994" x="465.5" y="16.5"/><ellipse cx="535.7085" cy="32.5" fill="#ADD1B2" rx="11" ry="11" style="stroke:#181818;stroke-width:1.0;"/><path d="M538.4741,28.375 Q538.6304,28.1563 538.8179,28.0469 Q539.0054,27.9375 539.2241,27.9375 Q539.5991,27.9375 539.8335,28.2031 Q540.0679,28.4531 540.0679,29.0625 L540.0679,30.5156 Q540.0679,31.125 539.8335,31.3906 Q539.5991,31.6563 539.2241,31.6563 Q538.8804,31.6563 538.6772,31.4531 Q538.4741,31.2656 538.3647,30.75 Q538.3179,30.3906 538.1304,30.2031 Q537.8022,29.8281 537.1929,29.6094 Q536.5835,29.3906 535.9585,29.3906 Q535.1929,29.3906 534.5522,29.7188 Q533.9272,30.0469 533.4272,30.7969 Q532.9429,31.5469 532.9429,32.5781 L532.9429,33.6719 Q532.9429,34.9063 533.8335,35.7344 Q534.7241,36.5469 536.3179,36.5469 Q537.2554,36.5469 537.9116,36.2969 Q538.3022,36.1406 538.7241,35.7031 Q538.9897,35.4375 539.1304,35.3594 Q539.2866,35.2813 539.4897,35.2813 Q539.8179,35.2813 540.0679,35.5469 Q540.3335,35.7969 540.3335,36.1406 Q540.3335,36.4844 539.9897,36.8906 Q539.4897,37.4688 538.6929,37.7969 Q537.6147,38.25 536.3179,38.25 Q534.8022,38.25 533.5991,37.625 Q532.6147,37.125 531.9272,36.0625 Q531.2397,34.9844 531.2397,33.7031 L531.2397,32.5469 Q531.2397,31.2188 531.8491,30.0781 Q532.4741,28.9219 533.5679,28.3125 Q534.6616,27.6875 535.896,27.6875 Q536.6304,27.6875 537.271,27.8594 Q537.9272,28.0156 538.4741,28.375 Z " fill="#000000"/><text fill="#000000" font-family="sans-serif" font-size="14" lengthAdjust="spacing" textLength="40.4824" x="556.2085" y="38.2969">Sedan</text><line style="stroke:#181818;stroke-width:0.5;" x1="466.5" x2="653.8994" y1="48.5" y2="48.5"/><rect fill="none" height="6" style="stroke:#C82930;stroke-width:1.0;" width="6" x="473.5" y="60.3105"/><text fill="#000000" font-family="sans-serif" font-size="14" lengthAdjust="spacing" textLength="145.5371" x="485.5" y="67.6074">espacioInterior : double</text><rect fill="none" height="6" style="stroke:#C82930;stroke-width:1.0;" width="6" x="473.5" y="78.9316"/><text fill="#000000" font-family="sans-serif" font-size="14" lengthAdjust="spacing" textLength="163.3994" x="485.5" y="86.2285">nivelConfort : NivelConfort</text><line style="stroke:#181818;stroke-width:0.5;" x1="466.5" x2="653.8994" y1="93.7422" y2="93.7422"/></g><!--class NivelConfort--><g id="elem_NivelConfort"><rect codeLine="6" fill="#F1F1F1" height="103.8633" id="NivelConfort" rx="2.5" ry="2.5" style="stroke:#181818;stroke-width:0.5;" width="109.0273" x="500.5" y="181"/><ellipse cx="515.5" cy="197" fill="#EB937F" rx="11" ry="11" style="stroke:#181818;stroke-width:1.0;"/><path d="M514.3594,197.7969 L514.3594,200.2969 L518.6875,200.2969 L518.6875,199.375 Q518.6875,198.7656 518.9219,198.5 Q519.1719,198.2344 519.5469,198.2344 Q519.9219,198.2344 520.1563,198.5 Q520.3906,198.7656 520.3906,199.375 L520.3906,202 L512.3906,202 Q511.7656,202 511.5,201.7656 Q511.25,201.5313 511.25,201.1406 Q511.25,200.7656 511.5156,200.5313 Q511.7813,200.2969 512.3906,200.2969 L512.6563,200.2969 L512.6563,193.6406 L512.3906,193.6406 Q511.7656,193.6406 511.5,193.4063 Q511.25,193.1719 511.25,192.7813 Q511.25,192.4063 511.5,192.1719 Q511.7656,191.9375 512.3906,191.9375 L520.0156,191.9375 L520.0156,194.5313 Q520.0156,195.1406 519.7813,195.4063 Q519.5625,195.6563 519.1719,195.6563 Q518.7969,195.6563 518.5625,195.4063 Q518.3281,195.1406 518.3281,194.5313 L518.3281,193.6406 L514.3594,193.6406 L514.3594,196.0938 L515.8438,196.0938 Q515.8438,195.4375 515.9688,195.25 Q516.2344,194.8438 516.7031,194.8438 Q517.0781,194.8438 517.3125,195.1094 Q517.5469,195.3594 517.5469,195.9688 L517.5469,197.9375 Q517.5469,198.4844 517.4219,198.6719 Q517.1563,199.0625 516.7031,199.0625 Q516.2344,199.0625 515.9688,198.6563 Q515.8438,198.4688 515.8438,197.7969 L514.3594,197.7969 Z " fill="#000000"/><text fill="#000000" font-family="sans-serif" font-size="14" lengthAdjust="spacing" textLength="77.0273" x="529.5" y="202.7969">NivelConfort</text><line style="stroke:#181818;stroke-width:0.5;" x1="501.5" x2="608.5273" y1="213" y2="213"/><text fill="#000000" font-family="sans-serif" font-size="14" lengthAdjust="spacing" textLength="52.9033" x="506.5" y="232.1074">BASICO</text><text fill="#000000" font-family="sans-serif" font-size="14" lengthAdjust="spacing" textLength="45.8896" x="506.5" y="250.7285">MEDIO</text><text fill="#000000" font-family="sans-serif" font-size="14" lengthAdjust="spacing" textLength="66.1104" x="506.5" y="269.3496">PREMIUM</text><line style="stroke:#181818;stroke-width:0.5;" x1="501.5" x2="608.5273" y1="276.8633" y2="276.8633"/></g><!--class Deportivo--><g id="elem_Deportivo"><rect codeLine="1" fill="#F1F1F1" height="103.8633" id="Deportivo" rx="2.5" ry="2.5" style="stroke:#181818;stroke-width:0.5;" width="190.2402" x="7" y="7"/><ellipse cx="67.9116" cy="23" fill="#ADD1B2" rx="11" ry="11" style="stroke:#181818;stroke-width:1.0;"/><path d="M70.6772,18.875 Q70.8335,18.6563 71.021,18.5469 Q71.2085,18.4375 71.4272,18.4375 Q71.8022,18.4375 72.0366,18.7031 Q72.271,18.9531 72.271,19.5625 L72.271,21.0156 Q72.271,21.625 72.0366,21.8906 Q71.8022,22.1563 71.4272,22.1563 Q71.0835,22.1563 70.8804,21.9531 Q70.6772,21.7656 70.5679,21.25 Q70.521,20.8906 70.3335,20.7031 Q70.0054,20.3281 69.396,20.1094 Q68.7866,19.8906 68.1616,19.8906 Q67.396,19.8906 66.7554,20.2188 Q66.1304,20.5469 65.6304,21.2969 Q65.146,22.0469 65.146,23.0781 L65.146,24.1719 Q65.146,25.4063 66.0366,26.2344 Q66.9272,27.0469 68.521,27.0469 Q69.4585,27.0469 70.1147,26.7969 Q70.5054,26.6406 70.9272,26.2031 Q71.1929,25.9375 71.3335,25.8594 Q71.4897,25.7813 71.6929,25.7813 Q72.021,25.7813 72.271,26.0469 Q72.5366,26.2969 72.5366,26.6406 Q72.5366,26.9844 72.1929,27.3906 Q71.6929,27.9688 70.896,28.2969 Q69.8179,28.75 68.521,28.75 Q67.0054,28.75 65.8022,28.125 Q64.8179,27.625 64.1304,26.5625 Q63.4429,25.4844 63.4429,24.2031 L63.4429,23.0469 Q63.4429,21.7188 64.0522,20.5781 Q64.6772,19.4219 65.771,18.8125 Q66.8647,18.1875 68.0991,18.1875 Q68.8335,18.1875 69.4741,18.3594 Q70.1304,18.5156 70.6772,18.875 Z " fill="#000000"/><text fill="#000000" font-family="sans-serif" font-size="14" lengthAdjust="spacing" textLength="59.917" x="88.4116" y="28.7969">Deportivo</text><line style="stroke:#181818;stroke-width:0.5;" x1="8" x2="196.2402" y1="39" y2="39"/><rect fill="none" height="6" style="stroke:#C82930;stroke-width:1.0;" width="6" x="15" y="50.8105"/><text fill="#000000" font-family="sans-serif" font-size="14" lengthAdjust="spacing" textLength="164.2402" x="27" y="58.1074">aceleracion0a100 : double</text><rect fill="none" height="6" style="stroke:#C82930;stroke-width:1.0;" width="6" x="15" y="69.4316"/><text fill="#000000" font-family="sans-serif" font-size="14" lengthAdjust="spacing" textLength="98.834" x="27" y="76.7285">potenciaCV : int</text><rect fill="none" height="6" style="stroke:#C82930;stroke-width:1.0;" width="6" x="15" y="88.0527"/><text fill="#000000" font-family="sans-serif" font-size="14" lengthAdjust="spacing" textLength="157.999" x="27" y="95.3496">tieneModoPista : boolean</text><line style="stroke:#181818;stroke-width:0.5;" x1="8" x2="196.2402" y1="102.8633" y2="102.8633"/></g><!--class Scooter--><g id="elem_Scooter"><rect codeLine="1" fill="#F1F1F1" height="66.6211" id="Scooter" rx="2.5" ry="2.5" style="stroke:#181818;stroke-width:0.5;" width="175.4268" x="804.5" y="25.5"/><ellipse cx="863.8394" cy="41.5" fill="#ADD1B2" rx="11" ry="11" style="stroke:#181818;stroke-width:1.0;"/><path d="M866.605,37.375 Q866.7612,37.1563 866.9487,37.0469 Q867.1362,36.9375 867.355,36.9375 Q867.73,36.9375 867.9644,37.2031 Q868.1987,37.4531 868.1987,38.0625 L868.1987,39.5156 Q868.1987,40.125 867.9644,40.3906 Q867.73,40.6563 867.355,40.6563 Q867.0112,40.6563 866.8081,40.4531 Q866.605,40.2656 866.4956,39.75 Q866.4487,39.3906 866.2612,39.2031 Q865.9331,38.8281 865.3237,38.6094 Q864.7144,38.3906 864.0894,38.3906 Q863.3237,38.3906 862.6831,38.7188 Q862.0581,39.0469 861.5581,39.7969 Q861.0737,40.5469 861.0737,41.5781 L861.0737,42.6719 Q861.0737,43.9063 861.9644,44.7344 Q862.855,45.5469 864.4487,45.5469 Q865.3862,45.5469 866.0425,45.2969 Q866.4331,45.1406 866.855,44.7031 Q867.1206,44.4375 867.2612,44.3594 Q867.4175,44.2813 867.6206,44.2813 Q867.9487,44.2813 868.1987,44.5469 Q868.4644,44.7969 868.4644,45.1406 Q868.4644,45.4844 868.1206,45.8906 Q867.6206,46.4688 866.8237,46.7969 Q865.7456,47.25 864.4487,47.25 Q862.9331,47.25 861.73,46.625 Q860.7456,46.125 860.0581,45.0625 Q859.3706,43.9844 859.3706,42.7031 L859.3706,41.5469 Q859.3706,40.2188 859.98,39.0781 Q860.605,37.9219 861.6987,37.3125 Q862.7925,36.6875 864.0269,36.6875 Q864.7612,36.6875 865.4019,36.8594 Q866.0581,37.0156 866.605,37.375 Z " fill="#000000"/><text fill="#000000" font-family="sans-serif" font-size="14" lengthAdjust="spacing" textLength="48.248" x="884.3394" y="47.2969">Scooter</text><line style="stroke:#181818;stroke-width:0.5;" x1="805.5" x2="978.9268" y1="57.5" y2="57.5"/><rect fill="none" height="6" style="stroke:#C82930;stroke-width:1.0;" width="6" x="812.5" y="69.3105"/><text fill="#000000" font-family="sans-serif" font-size="14" lengthAdjust="spacing" textLength="149.4268" x="824.5" y="76.6074">espacioBajoAsiento : int</text><line style="stroke:#181818;stroke-width:0.5;" x1="805.5" x2="978.9268" y1="84.1211" y2="84.1211"/></g><!--class MotoDeportiva--><g id="elem_MotoDeportiva"><rect codeLine="1" fill="#F1F1F1" height="85.2422" id="MotoDeportiva" rx="2.5" ry="2.5" style="stroke:#181818;stroke-width:0.5;" width="194.1025" x="1015" y="16.5"/><ellipse cx="1062.2808" cy="32.5" fill="#ADD1B2" rx="11" ry="11" style="stroke:#181818;stroke-width:1.0;"/><path d="M1065.0464,28.375 Q1065.2026,28.1563 1065.3901,28.0469 Q1065.5776,27.9375 1065.7964,27.9375 Q1066.1714,27.9375 1066.4058,28.2031 Q1066.6401,28.4531 1066.6401,29.0625 L1066.6401,30.5156 Q1066.6401,31.125 1066.4058,31.3906 Q1066.1714,31.6563 1065.7964,31.6563 Q1065.4526,31.6563 1065.2495,31.4531 Q1065.0464,31.2656 1064.937,30.75 Q1064.8901,30.3906 1064.7026,30.2031 Q1064.3745,29.8281 1063.7651,29.6094 Q1063.1558,29.3906 1062.5308,29.3906 Q1061.7651,29.3906 1061.1245,29.7188 Q1060.4995,30.0469 1059.9995,30.7969 Q1059.5151,31.5469 1059.5151,32.5781 L1059.5151,33.6719 Q1059.5151,34.9063 1060.4058,35.7344 Q1061.2964,36.5469 1062.8901,36.5469 Q1063.8276,36.5469 1064.4839,36.2969 Q1064.8745,36.1406 1065.2964,35.7031 Q1065.562,35.4375 1065.7026,35.3594 Q1065.8589,35.2813 1066.062,35.2813 Q1066.3901,35.2813 1066.6401,35.5469 Q1066.9058,35.7969 1066.9058,36.1406 Q1066.9058,36.4844 1066.562,36.8906 Q1066.062,37.4688 1065.2651,37.7969 Q1064.187,38.25 1062.8901,38.25 Q1061.3745,38.25 1060.1714,37.625 Q1059.187,37.125 1058.4995,36.0625 Q1057.812,34.9844 1057.812,33.7031 L1057.812,32.5469 Q1057.812,31.2188 1058.4214,30.0781 Q1059.0464,28.9219 1060.1401,28.3125 Q1061.2339,27.6875 1062.4683,27.6875 Q1063.2026,27.6875 1063.8433,27.8594 Q1064.4995,28.0156 1065.0464,28.375 Z " fill="#000000"/><text fill="#000000" font-family="sans-serif" font-size="14" lengthAdjust="spacing" textLength="91.041" x="1082.7808" y="38.2969">MotoDeportiva</text><line style="stroke:#181818;stroke-width:0.5;" x1="1016" x2="1208.1025" y1="48.5" y2="48.5"/><rect fill="none" height="6" style="stroke:#C82930;stroke-width:1.0;" width="6" x="1023" y="60.3105"/><text fill="#000000" font-family="sans-serif" font-size="14" lengthAdjust="spacing" textLength="161.8682" x="1035" y="67.6074">velocidadMaxima : double</text><rect fill="none" height="6" style="stroke:#C82930;stroke-width:1.0;" width="6" x="1023" y="78.9316"/><text fill="#000000" font-family="sans-serif" font-size="14" lengthAdjust="spacing" textLength="168.1025" x="1035" y="86.2285">tieneQuickShifter : boolean</text><line style="stroke:#181818;stroke-width:0.5;" x1="1016" x2="1208.1025" y1="93.7422" y2="93.7422"/></g><!--link Vehiculo to Valorable--><g id="link_Vehiculo_Valorable"><path codeLine="17" d="M732,571.24 C732,612.9 732,639.53 732,668.82 " fill="none" id="Vehiculo-to-Valorable" style="stroke:#181818;stroke-width:1.0;"/><polygon fill="none" points="732,686.82,738,668.82,726,668.82,732,686.82" style="stroke:#181818;stroke-width:1.0;"/></g><!--reverse link Vehiculo to Persona--><g id="link_Vehiculo_Persona"><path codeLine="18" d="M845.3309,579.8186 C871.2509,606.3186 889.96,625.44 913.63,649.63 " fill="none" id="Vehiculo-backto-Persona" style="stroke:#181818;stroke-width:1.0;"/><polygon fill="none" points="836.94,571.24,838.2759,578.3263,845.3309,579.8186,843.995,572.7324,836.94,571.24" style="stroke:#181818;stroke-width:1.0;"/><text fill="#000000" font-family="sans-serif" font-size="13" lengthAdjust="spacing" textLength="93.228" x="880" y="616.0283">tiene propietario</text><text fill="#000000" font-family="sans-serif" font-size="13" lengthAdjust="spacing" textLength="21.6836" x="884.8779" y="638.8545">0..1</text></g><!--reverse link Vehiculo to Estado--><g id="link_Vehiculo_Estado"><path codeLine="19" d="M643.7574,580.8155 C615.3874,618.3755 592.42,648.78 570.54,677.75 " fill="none" id="Vehiculo-backto-Estado" style="stroke:#181818;stroke-width:1.0;"/><polygon fill="#181818" points="650.99,571.24,644.1819,573.6169,643.7574,580.8155,650.5655,578.4386,650.99,571.24" style="stroke:#181818;stroke-width:1.0;"/><text fill="#000000" font-family="sans-serif" font-size="13" lengthAdjust="spacing" textLength="7.23" x="638.5994" y="592.7694">1</text><text fill="#000000" font-family="sans-serif" font-size="13" lengthAdjust="spacing" textLength="7.23" x="568.025" y="666.6142">1</text></g><!--link Coche to Vehiculo--><g id="link_Coche_Vehiculo"><path codeLine="20" d="M443.25,294.05 C478.98,314.83 504.4915,329.6683 544.2315,352.7883 " fill="none" id="Coche-to-Vehiculo" style="stroke:#181818;stroke-width:1.0;"/><polygon fill="none" points="559.79,361.84,547.2487,347.6022,541.2143,357.9745,559.79,361.84" style="stroke:#181818;stroke-width:1.0;"/></g><!--reverse link Coche to TipoCombustible--><g id="link_Coche_TipoCombustible"><path codeLine="21" d="M313.0554,305.428 C300.5154,338.678 289.22,368.62 276.69,401.86 " fill="none" id="Coche-backto-TipoCombustible" style="stroke:#181818;stroke-width:1.0;"/><polygon fill="#181818" points="317.29,294.2,311.43,298.4025,313.0554,305.428,318.9154,301.2255,317.29,294.2" style="stroke:#181818;stroke-width:1.0;"/><text fill="#000000" font-family="sans-serif" font-size="13" lengthAdjust="spacing" textLength="7.23" x="307.1034" y="316.7112">1</text><text fill="#000000" font-family="sans-serif" font-size="13" lengthAdjust="spacing" textLength="7.23" x="271.9194" y="390.825">1</text></g><!--reverse link Coche to Traccion--><g id="link_Coche_Traccion"><path codeLine="22" d="M360.7661,305.7269 C371.2661,342.0069 381.16,376.2 391.16,410.75 " fill="none" id="Coche-backto-Traccion" style="stroke:#181818;stroke-width:1.0;"/><polygon fill="#181818" points="357.43,294.2,355.2557,301.0755,360.7661,305.7269,362.9404,298.8514,357.43,294.2" style="stroke:#181818;stroke-width:1.0;"/><text fill="#000000" font-family="sans-serif" font-size="13" lengthAdjust="spacing" textLength="7.23" x="352.1355" y="316.7112">1</text><text fill="#000000" font-family="sans-serif" font-size="13" lengthAdjust="spacing" textLength="7.23" x="381.7096" y="399.6438">1</text></g><!--link Moto to Vehiculo--><g id="link_Moto_Vehiculo"><path codeLine="12" d="M930.71,294.2 C908.6,312.87 897.2947,322.4293 872.5947,343.2793 " fill="none" id="Moto-to-Vehiculo" style="stroke:#181818;stroke-width:1.0;"/><polygon fill="none" points="858.84,354.89,876.4649,347.8642,868.7244,338.6944,858.84,354.89" style="stroke:#181818;stroke-width:1.0;"/></g><!--reverse link Moto to TipoTransmision--><g id="link_Moto_TipoTransmision"><path codeLine="13" d="M1003.5828,306.1971 C1004.4528,345.9071 1005.31,384.93 1006.08,420.23 " fill="none" id="Moto-backto-TipoTransmision" style="stroke:#181818;stroke-width:1.0;"/><polygon fill="#181818" points="1003.32,294.2,999.4524,300.2862,1003.5828,306.1971,1007.4505,300.1109,1003.32,294.2" style="stroke:#181818;stroke-width:1.0;"/><text fill="#000000" font-family="sans-serif" font-size="13" lengthAdjust="spacing" textLength="7.23" x="996.0709" y="316.7112">1</text><text fill="#000000" font-family="sans-serif" font-size="13" lengthAdjust="spacing" textLength="7.23" x="998.356" y="409.0911">1</text></g><!--link Camion to Vehiculo--><g id="link_Camion_Vehiculo"><path codeLine="7" d="M738.62,294.2 C737.89,312.81 737.7697,315.904 736.9497,336.684 " fill="none" id="Camion-to-Vehiculo" style="stroke:#181818;stroke-width:1.0;"/><polygon fill="none" points="736.24,354.67,742.9451,336.9206,730.9544,336.4474,736.24,354.67" style="stroke:#181818;stroke-width:1.0;"/></g><!--link SUV to Coche--><g id="link_SUV_Coche"><path codeLine="5" d="M333.18,101.64 C334.28,122.71 334.7025,130.7144 335.9125,153.9144 " fill="none" id="SUV-to-Coche" style="stroke:#181818;stroke-width:1.0;"/><polygon fill="none" points="336.85,171.89,341.9043,153.6019,329.9206,154.2269,336.85,171.89" style="stroke:#181818;stroke-width:1.0;"/></g><!--link Sedan to Coche--><g id="link_Sedan_Coche"><path codeLine="12" d="M506.74,101.64 C479.78,122.71 460.7397,137.6024 431.0697,160.8024 " fill="none" id="Sedan-to-Coche" style="stroke:#181818;stroke-width:1.0;"/><polygon fill="none" points="416.89,171.89,434.7656,165.529,427.3739,156.0758,416.89,171.89" style="stroke:#181818;stroke-width:1.0;"/></g><!--reverse link Sedan to NivelConfort--><g id="link_Sedan_NivelConfort"><path codeLine="13" d="M558.4431,113.635 C557.7531,137.495 557.22,155.63 556.48,180.92 " fill="none" id="Sedan-backto-NivelConfort" style="stroke:#181818;stroke-width:1.0;"/><polygon fill="#181818" points="558.79,101.64,554.6182,107.5219,558.4431,113.635,562.6149,107.7531,558.79,101.64" style="stroke:#181818;stroke-width:1.0;"/><text fill="#000000" font-family="sans-serif" font-size="13" lengthAdjust="spacing" textLength="7.23" x="551.0258" y="123.8226">1</text><text fill="#000000" font-family="sans-serif" font-size="13" lengthAdjust="spacing" textLength="7.23" x="549.2222" y="169.8366">1</text></g><!--link Deportivo to Coche--><g id="link_Deportivo_Coche"><path codeLine="6" d="M172.76,111.14 C199.21,130.25 214.8897,141.5885 242.3497,161.4285 " fill="none" id="Deportivo-to-Coche" style="stroke:#181818;stroke-width:1.0;"/><polygon fill="none" points="256.94,171.97,245.8636,156.565,238.8359,166.2919,256.94,171.97" style="stroke:#181818;stroke-width:1.0;"/></g><!--link Scooter to Moto--><g id="link_Scooter_Moto"><path codeLine="4" d="M912.95,92.76 C927.22,115.08 936.839,130.1279 953.839,156.6979 " fill="none" id="Scooter-to-Moto" style="stroke:#181818;stroke-width:1.0;"/><polygon fill="none" points="963.54,171.86,958.893,153.4642,948.7849,159.9315,963.54,171.86" style="stroke:#181818;stroke-width:1.0;"/></g><!--link MotoDeportiva to Moto--><g id="link_MotoDeportiva_Moto"><path codeLine="5" d="M1085.37,101.64 C1071.89,122.71 1064.9793,133.5267 1050.1393,156.7267 " fill="none" id="MotoDeportiva-to-Moto" style="stroke:#181818;stroke-width:1.0;"/><polygon fill="none" points="1040.44,171.89,1055.1937,159.9598,1045.0848,153.4937,1040.44,171.89" style="stroke:#181818;stroke-width:1.0;"/></g><!--SRC=[KypCIyufJKbLqDFJ1wBG4DDuLvVuWAByTDsKrDny_TBS7Fsmr8pCvDASVBq288zBaGWT0Qb5nVbvYSHhSCvFpaWbNhblVWa9hd5EpCtCpoDUVN1e60cAKrCIIJ3R9RKWlwWaium4vmSdv-UNf1QHRWS9uH-Mc9DVb9YK0uq30000]--></g></svg>